<svg width="633" height="556" viewBox="0 0 633 556" fill="none" xmlns="http://www.w3.org/2000/svg">
<path d="M126.69 174.198C126.69 174.198 88.8475 62.224 220.843 75.8903C352.838 89.5566 289.772 39.9952 339.65 9.2389C389.528 -21.5173 536.49 74.168 475.005 166.458C413.521 258.748 573.264 174.324 606.586 313.111C627.149 398.757 576.132 461.795 534.043 497.529" stroke="#CCDDE2" stroke-width="5.47" stroke-miterlimit="10"/>
<path d="M546.915 390.527C536.996 333.085 501.874 281.682 444.812 263.284C430.215 258.604 415.288 255.02 400.157 252.563V252.641C399.368 257.409 397.5 261.935 394.695 265.871C388.747 274.019 380.55 280.711 371.06 284.198C361.373 287.784 349.372 288.248 340.381 282.61C334.968 279.221 329.716 273.253 328.767 266.813C327.685 259.558 331.383 252.69 336.585 247.895C292.493 248.254 251.016 255.509 217.778 263.769C218.93 268.592 220.525 273.299 222.544 277.829C225.369 284.144 229.362 289.869 234.312 294.701C240.487 288.584 245.893 281.739 250.411 274.314C254.733 275.729 258.545 278.383 261.371 281.947C264.196 285.51 265.913 289.825 266.306 294.357V294.589C268.049 311.046 252.204 323.412 238.889 331.018C223.507 339.862 206.361 346.484 189.517 351.989C182.572 354.266 173.545 356.207 166.213 353.831C165.423 353.579 164.653 353.271 163.907 352.91C156.596 349.324 151.703 341.809 147.885 334.941C137.01 315.433 129.938 294.167 125.143 272.339C91.8705 276.592 88.0602 254.061 86.0848 248.535L57.6203 328.108C56.1271 333.827 55.9661 339.813 57.1479 345.605C58.3303 351.397 60.8253 356.841 64.4408 361.519C68.0556 366.196 72.6954 369.981 78.0024 372.585C83.31 375.189 89.1435 376.541 95.0551 376.537H212.892L266.418 513.833L281.589 552.801H368.241C361.211 552.801 357.365 551.085 354.575 548.287C351.692 545.404 350.07 541.496 350.061 537.419C350.061 528.983 356.986 522.065 368.241 522.065H369.035C368.185 522.065 367.369 521.988 366.519 521.911C367.046 521.854 367.569 521.767 368.086 521.651C367.529 521.637 366.973 521.595 366.42 521.524C371.496 520.924 376.201 518.56 379.71 514.844C383.22 511.127 385.311 506.296 385.619 501.193C385.633 500.928 385.633 500.663 385.619 500.399V499.991C385.498 494.76 383.498 489.747 379.987 485.869C376.474 481.99 371.683 479.504 366.49 478.866C367.081 478.817 367.643 478.768 368.213 478.768C367.7 478.641 367.13 478.564 366.596 478.486C367.439 478.409 368.29 478.353 369.106 478.353L432.502 478.69L444.165 478.74H458.007C458.647 478.74 459.293 478.74 459.905 478.817L480.468 478.922L494.204 479C499.946 479.047 505.433 481.367 509.469 485.452C513.504 489.536 515.758 495.051 515.737 500.793C515.73 504.039 514.977 507.24 513.537 510.15C519.431 509.395 524.896 506.67 529.045 502.417C538.936 492.314 543.196 477.193 546.142 463.752C551.351 439.807 551.042 414.577 546.915 390.527ZM386.744 392.144C374.8 410.527 354.462 408.875 354.462 408.875C354.462 408.875 352.775 410.52 348.838 403.519C344.901 396.517 333.688 391.729 333.688 391.729C332.796 398.759 330.947 409.445 312.598 395.596C294.25 381.747 299.783 361.556 301.35 350.892C302.918 340.227 309.168 336.691 309.168 336.691L316.549 332.797C316.549 332.797 295.199 327.306 294.173 327.102C293.146 326.899 274.13 310.976 293.428 306.772C312.725 302.568 342.806 319.285 348.62 322.589C354.434 325.893 388.41 354.632 388.41 354.632C388.41 354.632 398.751 373.789 386.744 392.144Z" fill="#353642"/>
<path d="M125.115 272.351C125.115 272.351 141.207 270.397 147.232 258.91L141.98 288.373C141.98 288.373 205.995 266.58 217.735 263.768C217.735 263.768 221.518 288.155 236.576 294.7L252.112 274.945C252.112 274.945 271.592 279.866 266.264 306.412C260.935 332.957 187.232 355.144 174.733 354.631C162.234 354.117 148.778 346.427 134.999 305.097L125.115 272.351Z" fill="#353642"/>
<path d="M151.33 206.72C155.408 213.356 159.506 219.979 163.738 226.517C166.346 230.545 171.099 236.288 166.044 240.499C164.399 241.76 162.412 242.496 160.343 242.608C157.095 242.896 153.685 242.116 151.71 239.325L141.868 223.016C139.906 219.763 136.791 217.368 133.144 216.308C129.496 215.247 125.584 215.6 122.184 217.293" stroke="black" stroke-width="5.47" stroke-miterlimit="10"/>
<path d="M188.554 228.202C191.127 234.318 189.384 238.262 186.375 240.244C181.454 243.471 174.867 241.924 171.38 237.214L151.365 206.753" stroke="black" stroke-width="5.47" stroke-miterlimit="10"/>
<path d="M168.272 197.862C175.556 206.72 184.744 223.17 189.826 230.039C194.909 236.907 202.769 232.766 202.769 232.766C209.152 229.328 208.069 223.627 205.278 216.703C198.403 199.704 188.589 188.4 177.643 180.99C143.724 158.044 108.925 174.973 98.5701 214.58L57.6203 328.107C56.1271 333.827 55.9661 339.813 57.1479 345.605C58.3303 351.397 60.8253 356.841 64.4408 361.519C68.0556 366.196 72.6954 369.981 78.0024 372.585C83.31 375.188 89.1435 376.54 95.0551 376.537H212.892L281.61 552.807" stroke="black" stroke-width="5.47" stroke-miterlimit="10"/>
<path d="M210.347 208.906C218.783 205.981 218.396 192.526 206.424 187.984C193.201 182.965 169.721 175.865 163.823 174.093C163.786 174.065 163.742 174.048 163.696 174.044C163.281 173.917 162.993 173.812 162.768 173.763L162.438 173.657" stroke="black" stroke-width="5.47" stroke-miterlimit="10"/>
<path d="M334.989 343.438C327.607 334.566 307.403 329.54 294.215 327.107C291.998 326.691 289.977 325.566 288.455 323.901C286.934 322.236 285.995 320.122 285.779 317.877C285.626 316.363 285.801 314.833 286.292 313.392C287.078 311.179 288.585 309.295 290.569 308.041C292.554 306.787 294.902 306.235 297.238 306.474C319.734 308.752 342.933 315.831 360.093 331.079C360.093 331.079 443.279 394.56 453.212 400.74C457.311 403.228 461.135 400.29 458.358 396.381L457.487 394.891C452.597 386.5 446.81 378.665 440.228 371.523" stroke="black" stroke-width="5.47" stroke-miterlimit="10"/>
<path d="M336.528 247.887C231.908 248.759 141.98 288.366 141.98 288.366L150.958 238.045" stroke="black" stroke-width="5.47" stroke-miterlimit="10"/>
<path d="M499.02 521.754C499.02 521.754 487.624 519.174 484.594 528.299C481.564 537.424 478.401 551.941 500.187 552.798C521.973 553.656 509.178 549.375 507.92 542.324C506.662 535.273 499.02 521.754 499.02 521.754Z" fill="#353642"/>
<path d="M324.936 355.018C324.936 355.018 312.641 345.696 301.568 355.144C301.102 355.555 300.695 356.028 300.359 356.55" stroke="black" stroke-width="5.47" stroke-miterlimit="10"/>
<g opacity="0.77">
<path opacity="0.77" d="M171.338 237.181C174.853 241.898 181.433 243.438 186.332 240.204C189.306 238.236 191.05 234.313 188.54 228.253C188.997 228.921 189.412 229.511 189.819 230.053C194.895 236.949 202.762 232.794 202.762 232.794C209.145 229.357 208.069 223.655 205.278 216.724C202.547 209.858 198.964 203.363 194.614 197.391C197.461 194.727 200.842 192.034 204.407 193.215C208.252 194.495 209.328 199.317 209.763 203.339C209.967 205.209 210.171 207.057 210.375 208.927L213.454 236.457C214.481 245.596 215.507 254.869 217.736 263.79C218.888 268.613 220.483 273.319 222.502 277.85C225.327 284.165 229.32 289.889 234.27 294.722C240.445 288.605 245.851 281.759 250.369 274.335C254.691 275.749 258.502 278.404 261.329 281.967C264.154 285.531 265.871 289.846 266.264 294.377V294.609C268.007 311.066 252.161 323.432 238.847 331.039C223.465 339.882 206.319 346.505 189.475 352.009C182.529 354.287 173.503 356.227 166.17 353.851C165.381 353.599 164.611 353.291 163.865 352.93C156.553 349.345 151.661 341.83 147.843 334.961C129.565 302.096 121.973 264.359 117.973 226.988C125.973 225.884 133.945 224.654 141.819 222.959C141.819 222.959 141.819 223.016 141.868 223.037L150.943 238.088L151.689 239.339C153.657 242.151 157.067 242.903 160.321 242.622C162.391 242.52 164.379 241.784 166.016 240.513C171.063 236.295 166.325 230.573 163.71 226.545" fill="white"/>
<path opacity="0.77" d="M171.338 237.181C174.853 241.898 181.433 243.438 186.332 240.204C189.306 238.236 191.05 234.313 188.54 228.253C188.997 228.921 189.412 229.511 189.819 230.053C194.895 236.949 202.762 232.794 202.762 232.794C209.145 229.357 208.069 223.655 205.278 216.724C202.547 209.858 198.964 203.363 194.614 197.391C197.461 194.727 200.842 192.034 204.407 193.215C208.252 194.495 209.328 199.317 209.763 203.339C209.967 205.209 210.171 207.057 210.375 208.927L213.454 236.457C214.481 245.596 215.507 254.869 217.736 263.79C218.888 268.613 220.483 273.319 222.502 277.85C225.327 284.165 229.32 289.889 234.27 294.722C240.445 288.605 245.851 281.759 250.369 274.335C254.691 275.749 258.502 278.404 261.329 281.967C264.154 285.531 265.871 289.846 266.264 294.377V294.609C268.007 311.066 252.161 323.432 238.847 331.039C223.465 339.882 206.319 346.505 189.475 352.009C182.529 354.287 173.503 356.227 166.17 353.851C165.381 353.599 164.611 353.291 163.865 352.93C156.553 349.345 151.661 341.83 147.843 334.961C129.565 302.096 121.973 264.359 117.973 226.988C125.973 225.884 133.945 224.654 141.819 222.959C141.819 222.959 141.819 223.016 141.868 223.037L150.943 238.088L151.689 239.339C153.657 242.151 157.067 242.903 160.321 242.622C162.391 242.52 164.379 241.784 166.016 240.513C171.063 236.295 166.325 230.573 163.71 226.545" fill="#9747FF"/>
<path opacity="0.77" d="M173.496 239.41C176.61 243.628 181.932 243.093 186.333 240.204C188.99 238.446 191.169 238.96 188.927 233.539C189.341 234.13 189.398 232.133 189.763 232.576C194.297 238.735 189.819 230.032 189.819 230.032C196.146 238.025 209.918 230.496 207.394 224.316C204.723 217.659 201.911 207.817 198.347 202.896C201.159 200.238 200.617 200.632 204.196 202.748C205.157 203.365 205.962 204.198 206.546 205.18C207.131 206.163 207.479 207.267 207.563 208.407C207.851 211.086 208.14 213.652 208.428 216.267L211.17 240.872C212.09 249.048 213.004 257.308 214.994 265.266C216.022 269.569 217.449 273.767 219.254 277.807C221.771 283.368 229.855 292.627 234.27 296.866C239.761 291.417 246.341 281.4 250.369 274.742C258.102 277.118 257.764 284.514 258.313 292.591V292.802C259.873 307.488 245.729 318.518 233.876 325.316C220.14 333.211 204.835 339.116 189.798 344.037C183.598 346.076 175.541 347.833 168.997 345.682C168.291 345.459 167.602 345.184 166.937 344.86C160.413 341.654 156.04 334.954 152.631 328.817C137.706 302.012 130.781 271.579 126.971 241.069C126.691 238.785 127.309 236.484 128.694 234.647C130.079 232.811 132.123 231.584 134.395 231.227C138.676 230.524 142.943 229.821 147.182 228.879L147.302 228.935L155.401 242.369C157.165 244.865 157.453 242.91 160.357 242.657C162.191 242.496 165.749 242.137 167.169 240.949C171.675 237.195 169.13 235.641 166.796 232.049" fill="#9747FF"/>
</g>
<path d="M323.453 368.587C323.453 368.587 300.106 360.91 299.755 373.817" stroke="black" stroke-width="5.47" stroke-miterlimit="10"/>
<path opacity="0.54" d="M114.472 500.066L68.6855 382.763C68.1182 380.493 68.076 378.124 68.5611 375.835C69.0469 373.547 70.0479 371.398 71.4877 369.554C72.9281 367.71 74.7693 366.219 76.8727 365.193C78.9753 364.167 81.2847 363.635 83.6243 363.635H265.49C269.574 363.634 273.539 365.008 276.747 367.536C279.954 370.063 282.217 373.597 283.171 377.568L333.295 494.842C333.837 497.105 333.859 499.46 333.359 501.733C332.86 504.005 331.852 506.134 330.412 507.96C328.971 509.788 327.136 511.264 325.043 512.28C322.95 513.295 320.654 513.823 318.328 513.823H132.11C128.057 513.826 124.119 512.473 120.923 509.98C117.728 507.487 115.457 503.998 114.472 500.066Z" fill="white"/>
<path d="M331.052 388.373C331.052 388.373 334.841 391.846 333.4 396.809C332.332 400.486 328.676 402.806 325.056 401.547C313.526 397.561 303.143 390.791 300.612 379.283C299.416 373.457 299.158 367.476 299.846 361.568C300.401 356.091 301.21 350.179 303.052 344.97C305.864 336.97 314.475 331.395 322.834 335.247" stroke="black" stroke-width="5.47" stroke-miterlimit="10"/>
<path d="M114.472 500.066L68.6855 382.763C68.1182 380.493 68.076 378.124 68.5611 375.835C69.0469 373.547 70.0479 371.398 71.4877 369.554C72.9281 367.71 74.7693 366.219 76.8727 365.193C78.9753 364.167 81.2847 363.635 83.6243 363.635H265.49C269.574 363.634 273.539 365.008 276.747 367.536C279.954 370.063 282.217 373.597 283.171 377.568L333.295 494.842C333.837 497.105 333.859 499.46 333.359 501.733C332.86 504.005 331.852 506.134 330.412 507.96C328.971 509.788 327.136 511.264 325.043 512.28C322.95 513.295 320.654 513.823 318.328 513.823H132.11C128.057 513.826 124.119 512.473 120.923 509.98C117.728 507.487 115.457 503.998 114.472 500.066Z" fill="#9747FF"/>
<path d="M114.472 500.066L68.6855 382.763C68.1182 380.493 68.076 378.124 68.5611 375.835C69.0469 373.547 70.0479 371.398 71.4877 369.554C72.9281 367.71 74.7693 366.219 76.8727 365.193C78.9753 364.167 81.2847 363.635 83.6243 363.635H265.49C269.574 363.634 273.539 365.008 276.747 367.536C279.954 370.063 282.217 373.597 283.171 377.568L333.295 494.842C333.837 497.105 333.859 499.46 333.359 501.733C332.86 504.005 331.852 506.134 330.412 507.96C328.971 509.788 327.136 511.264 325.043 512.28C322.95 513.295 320.654 513.823 318.328 513.823H132.11C128.057 513.826 124.119 512.473 120.923 509.98C117.728 507.487 115.457 503.998 114.472 500.066Z" stroke="black" stroke-width="5.47" stroke-linecap="square" stroke-linejoin="round"/>
<path d="M121.171 495.342L78.9282 387.08C78.4059 384.985 78.3679 382.8 78.8164 380.689C79.265 378.578 80.1887 376.596 81.5181 374.895C82.8467 373.195 84.5459 371.819 86.4855 370.873C88.4258 369.926 90.5558 369.434 92.7141 369.434H260.492C264.259 369.433 267.916 370.7 270.875 373.032C273.834 375.363 275.922 378.623 276.802 382.285L323.052 490.484C323.551 492.572 323.571 494.745 323.11 496.842C322.648 498.938 321.718 500.902 320.388 502.587C319.06 504.273 317.365 505.635 315.434 506.571C313.503 507.508 311.384 507.996 309.238 507.996H137.439C133.705 507.999 130.078 506.756 127.132 504.464C124.185 502.171 122.087 498.961 121.171 495.342Z" fill="#9747FF"/>
<path d="M480.243 478.359L512.412 552.799" stroke="black" stroke-width="5.47" stroke-miterlimit="10"/>
<path d="M632.85 552.799H0.150024" stroke="black" stroke-width="5.47" stroke-miterlimit="10"/>
<path d="M333.632 216.821C328.416 221.974 320.627 221.967 316.191 217.2" stroke="black" stroke-width="5.47" stroke-miterlimit="10"/>
<path d="M194.614 197.369C197.461 194.704 200.842 192.012 204.407 193.193C208.252 194.472 209.328 199.295 209.764 203.316C210.996 214.367 212.226 225.407 213.454 236.435C215.015 250.495 216.66 264.892 222.502 277.813C225.327 284.128 229.32 289.853 234.27 294.685" stroke="black" stroke-width="5.47" stroke-miterlimit="10"/>
<path d="M266.264 294.601V294.369C265.871 289.838 264.154 285.522 261.329 281.959C258.503 278.396 254.691 275.741 250.369 274.326C245.851 281.751 240.445 288.597 234.27 294.713C218.082 310.81 197.287 321.47 174.768 325.216C175.851 329.526 178.079 333.448 179.619 337.596C181.158 341.744 181.925 346.545 180.055 350.545C177.693 355.649 170.916 354.981 166.206 353.85C166.156 353.85 166.128 353.85 166.079 353.85" stroke="black" stroke-width="5.47" stroke-miterlimit="10"/>
<path d="M141.833 222.952C133.959 224.647 125.987 225.877 117.987 226.98C121.987 264.352 129.551 302.089 147.857 334.954C151.675 341.823 156.567 349.338 163.879 352.923C164.625 353.285 165.395 353.593 166.184 353.844C173.517 356.255 182.543 354.28 189.489 352.002C206.361 346.49 223.479 339.875 238.861 331.032C252.14 323.418 267.986 311.059 266.278 294.602C266.112 292.79 265.742 291.002 265.174 289.273" stroke="black" stroke-width="5.47" stroke-miterlimit="10"/>
<path d="M273.49 148.404C274.67 153.324 277.363 157.748 281.191 161.055C285.019 164.363 289.788 166.385 294.827 166.837C295.245 164.808 296.152 162.91 297.47 161.312C303.094 154.683 305.491 167.119 323.481 158.191C348.409 145.79 357.872 152.904 357.872 152.904C358.701 153.523 358.575 159.23 358.715 160.271C359.418 166.197 360.051 172.095 360.747 178.014C361.169 181.628 361.583 185.214 361.977 188.799C362.317 188.189 362.692 187.599 363.102 187.034C365.373 178.999 369.429 169.509 378.174 173.593C379.945 174.457 381.487 175.725 382.673 177.297C388.473 184.918 384.079 192.278 378.013 197.727C376.492 199.417 374.792 200.937 372.944 202.262C373.942 204.328 378.02 212.532 378.02 212.561C378.441 213.39 392.691 197.263 393.753 195.505C395.339 191.2 396.189 186.659 396.269 182.071C396.501 163.21 388.825 141.255 373.548 130.435C369.759 127.757 370.968 125.177 370.736 121.535C370.72 121.339 370.645 121.152 370.52 120.998C370.395 120.845 370.227 120.733 370.038 120.678C369.848 120.622 369.646 120.626 369.458 120.687C369.271 120.749 369.106 120.865 368.986 121.023C364.199 126.534 352.346 125.986 352.346 125.986C311.206 115.68 297.378 133.972 289.076 137.234C285.688 138.517 281.96 138.579 278.531 137.41C278.329 138.544 277.821 139.603 277.062 140.47C276.302 141.338 275.32 141.981 274.222 142.331L274.432 144.235C274.612 145.693 274.279 147.166 273.49 148.404Z" fill="#9747FF"/>
<path d="M294.855 166.868C289.816 166.415 285.047 164.393 281.219 161.086C277.391 157.779 274.697 153.354 273.519 148.435C273.057 146.548 272.765 144.623 272.647 142.684L272.97 142.649C273.412 142.616 273.848 142.521 274.264 142.368C275.363 142.018 276.344 141.375 277.104 140.507C277.863 139.64 278.371 138.582 278.573 137.447C278.702 136.818 278.728 136.172 278.65 135.535L277.596 126.227C277.596 126.227 285.034 131.76 293.287 128.526C301.54 125.292 315.396 107 356.557 117.278C356.557 117.278 365.851 117.826 370.617 112.315C370.737 112.157 370.902 112.041 371.089 111.98C371.277 111.918 371.479 111.915 371.669 111.97C371.858 112.026 372.026 112.138 372.151 112.29C372.276 112.444 372.351 112.631 372.367 112.828C372.613 116.477 373.963 119.057 377.759 121.728C393.036 132.554 400.712 154.502 400.473 173.363C400.403 181.188 397.802 188.914 393.788 195.543C392.726 197.301 378.476 213.427 378.055 212.598C378.055 212.598 373.977 204.366 372.979 202.299L372.74 201.842L373.197 201.54C374.894 200.387 376.514 199.126 378.048 197.765C384.107 192.316 388.508 184.956 382.709 177.335C381.521 175.763 379.98 174.494 378.209 173.631C369.436 169.546 365.408 179.037 363.137 187.072C362.696 188.607 362.425 190.187 362.329 191.782C362.223 190.798 362.118 189.849 362.012 188.865C361.619 185.279 361.204 181.694 360.782 178.081C360.079 172.161 359.418 166.263 358.75 160.337C358.645 159.324 358.75 153.588 357.907 152.969C357.907 152.969 348.437 145.855 323.516 158.256C305.526 167.184 303.129 154.741 297.505 161.377C296.188 162.977 295.28 164.873 294.862 166.903C294.733 167.555 294.651 168.215 294.616 168.878C294.602 168.964 294.602 169.052 294.616 169.138C294.531 170.594 294.503 172.042 294.468 173.462C294.334 187.163 295.839 201.476 301.217 214.201C307.755 229.624 325.056 244.837 343.045 237.646C348.669 235.389 353.71 231.755 358.321 227.895" stroke="black" stroke-width="5.47" stroke-miterlimit="10"/>
<path d="M307.166 200.284C308.955 199.685 309.818 197.445 309.094 195.28C308.37 193.115 306.332 191.845 304.542 192.444C302.753 193.042 301.89 195.283 302.614 197.448C303.338 199.613 305.376 200.883 307.166 200.284Z" fill="black"/>
<path d="M333.933 199.427C335.722 198.829 336.585 196.588 335.861 194.423C335.137 192.258 333.099 190.988 331.309 191.587C329.52 192.186 328.657 194.427 329.381 196.591C330.105 198.756 332.143 200.026 333.933 199.427Z" fill="black"/>
<path d="M323.699 204.063C323.699 204.063 314.792 209.118 314.25 203.874C314.082 202.257 311.902 186.418 311.902 186.418C311.902 186.418 304.704 178.791 293.674 184.429" stroke="black" stroke-width="5.47" stroke-miterlimit="10"/>
<path d="M321.695 181.98C321.695 181.98 336.079 174.795 345.597 185.151" stroke="black" stroke-width="5.47" stroke-miterlimit="10"/>
<path d="M334.883 239.41L336.536 247.888C331.326 252.689 327.643 259.572 328.718 266.82C329.674 273.245 334.933 279.227 340.325 282.595C349.337 288.219 361.323 287.776 371.025 284.198C380.508 280.683 388.712 274.011 394.66 265.87C397.46 261.935 399.326 257.413 400.115 252.647V252.563" stroke="black" stroke-width="5.47" stroke-miterlimit="10"/>
<path d="M336.536 247.887L339.755 263.198" stroke="black" stroke-width="5.47" stroke-miterlimit="10"/>
<path d="M382.069 208.906L386.934 241.209C387.413 244.371 389.012 247.256 391.438 249.339C393.865 251.423 396.958 252.567 400.157 252.563C415.298 255.016 430.233 258.597 444.84 263.276C501.902 281.681 537.024 333.084 546.943 390.519C551.07 414.569 551.379 439.793 546.198 463.709C543.253 477.171 538.993 492.293 529.101 502.374C516.258 515.52 496.545 510.107 481.368 504.166C434.246 485.839 395.053 453.234 361.211 415.905C343.116 395.94 319.734 379.939 319.734 379.939" stroke="black" stroke-width="5.47" stroke-miterlimit="10"/>
<path d="M136.743 471.112C131.456 471.063 126.852 466.796 125.664 460.855C123.316 449.171 122.697 431.104 139.829 427.161C161.236 422.24 177.7 445.551 185.77 460.286C188.484 465.207 185.412 471.534 180.357 471.534L136.743 471.112Z" fill="#D7E8F0"/>
<path d="M143.81 417.24C148.354 414.215 148.425 406.332 143.966 399.632C139.507 392.931 132.209 389.95 127.664 392.974C123.119 395.999 123.049 403.882 127.508 410.582C131.967 417.283 139.265 420.264 143.81 417.24Z" fill="#D7E8F0"/>
<path d="M495.603 522.14C495.273 522.189 494.9 522.238 494.577 522.316H494.45L444.446 522.056L369.415 521.669C369.127 521.669 368.845 521.669 368.564 521.669C368.007 521.656 367.451 521.613 366.898 521.542C371.981 520.952 376.694 518.587 380.206 514.865C383.717 511.142 385.804 506.3 386.097 501.191C386.111 500.926 386.111 500.661 386.097 500.396V499.988C386.077 494.989 384.335 490.15 381.164 486.284C377.994 482.419 373.589 479.763 368.691 478.765C368.178 478.638 367.615 478.561 367.074 478.484C367.924 478.406 368.768 478.35 369.591 478.35L432.98 478.688L444.65 478.737L460.39 478.814C465.779 479.306 470.792 481.791 474.447 485.782C478.101 489.773 480.135 494.984 480.151 500.396C480.152 501.418 480.075 502.438 479.919 503.447C479.17 508.599 476.596 513.312 472.667 516.726C468.737 520.141 463.712 522.032 458.506 522.056H496.595C494.401 522.056 495.013 522.056 495.603 522.14Z" fill="white"/>
<path d="M394.174 548.287C395.603 549.724 397.302 550.862 399.173 551.637C401.046 552.412 403.053 552.807 405.078 552.801H368.255C361.225 552.801 357.386 551.085 354.588 548.287C351.713 545.399 350.094 541.494 350.082 537.419C350.082 528.983 357 522.065 368.255 522.065H405.078C402.038 522.061 399.065 522.958 396.536 524.645C394.006 526.332 392.035 528.731 390.871 531.54C389.707 534.348 389.402 537.439 389.997 540.421C390.591 543.402 392.058 546.14 394.21 548.287H394.174Z" fill="#D7E8F0"/>
<path d="M515.787 500.783C515.777 504.03 515.022 507.231 513.579 510.14C512.549 512.339 511.135 514.336 509.403 516.038C506.548 518.867 502.963 520.846 499.048 521.753C497.434 522.126 495.783 522.315 494.127 522.316C494.465 522.238 494.83 522.189 495.153 522.14C494.563 522.084 493.951 522.063 496.152 522.063H458.056C463.266 522.043 468.295 520.152 472.228 516.735C476.161 513.319 478.736 508.603 479.484 503.447C479.639 502.438 479.716 501.418 479.716 500.396C479.699 494.984 477.664 489.772 474.008 485.78C470.352 481.788 465.338 479.305 459.947 478.814L480.51 478.919L494.247 478.997C499.987 479.045 505.475 481.364 509.511 485.446C513.547 489.528 515.803 495.042 515.787 500.783Z" fill="#9747FF"/>
<path d="M515.786 500.777C515.744 506.521 513.426 512.014 509.341 516.053C505.257 520.091 499.738 522.347 493.993 522.324L368.916 521.677C368.079 521.677 367.243 521.614 366.399 521.53C371.671 520.932 376.541 518.422 380.086 514.473C383.631 510.525 385.604 505.414 385.632 500.107C385.66 494.802 383.74 489.67 380.237 485.685C376.733 481.699 371.89 479.138 366.624 478.485C367.46 478.397 368.3 478.355 369.141 478.359L494.218 479.005C499.962 479.045 505.456 481.358 509.498 485.438C513.54 489.518 515.801 495.034 515.786 500.777Z" stroke="black" stroke-width="5.47" stroke-linecap="square" stroke-linejoin="round"/>
<path d="M479.702 500.39C479.69 506.133 477.404 511.637 473.343 515.698C469.282 519.759 463.778 522.045 458.035 522.056H369.042C368.201 522.051 367.361 522.004 366.526 521.916C371.794 521.29 376.65 518.754 380.174 514.787C383.698 510.82 385.644 505.699 385.644 500.393C385.644 495.088 383.698 489.966 380.174 485.999C376.65 482.033 371.794 479.497 366.526 478.871C367.362 478.794 368.206 478.737 369.042 478.737H458.035C463.775 478.75 469.276 481.036 473.337 485.093C477.396 489.15 479.685 494.65 479.702 500.39Z" stroke="black" stroke-width="5.47" stroke-linecap="square" stroke-linejoin="round"/>
<path d="M350.082 537.423C350.082 539.439 350.479 541.436 351.251 543.299C352.023 545.161 353.154 546.853 354.581 548.277C357.393 551.089 361.211 552.798 368.248 552.798H496.145C493.944 552.798 494.542 552.756 495.139 552.699C491.397 552.259 487.947 550.46 485.443 547.644C482.939 544.829 481.556 541.191 481.556 537.423C481.556 533.655 482.939 530.018 485.443 527.202C487.947 524.387 491.397 522.588 495.139 522.147C494.542 522.091 493.944 522.049 496.145 522.049H368.248C356.986 522.056 350.082 528.973 350.082 537.423Z" stroke="black" stroke-width="5.47" stroke-linecap="square" stroke-linejoin="round"/>
<path d="M389.661 537.423C389.67 541.498 391.294 545.404 394.175 548.284C397.056 551.166 400.961 552.789 405.036 552.798H493.354C493.944 552.798 494.542 552.756 495.139 552.699C491.397 552.259 487.947 550.46 485.443 547.644C482.939 544.829 481.556 541.191 481.556 537.423C481.556 533.655 482.939 530.018 485.443 527.202C487.947 524.387 491.397 522.588 495.139 522.147C494.542 522.091 493.944 522.049 493.354 522.049H405.036C400.962 522.06 397.057 523.683 394.177 526.564C391.296 529.445 389.673 533.349 389.661 537.423Z" stroke="black" stroke-width="5.47" stroke-linecap="square" stroke-linejoin="round"/>
<path d="M246.495 420.122H207.043C205.238 420.119 203.472 419.591 201.962 418.602C200.452 417.614 199.262 416.208 198.537 414.554C198.257 413.939 198.137 413.263 198.189 412.589C198.24 411.914 198.461 411.265 198.832 410.699C199.202 410.134 199.71 409.671 200.307 409.354C200.905 409.038 201.572 408.878 202.248 408.888H244.189C242.214 412.213 243.219 416.832 246.495 420.122Z" fill="#D7E8F0"/>
<path d="M272.007 416.057C272.005 417.133 271.578 418.163 270.817 418.923C270.057 419.684 269.026 420.112 267.951 420.114H246.495C243.219 416.831 242.214 412.212 244.189 408.866H263.135C264.938 408.866 266.702 409.39 268.214 410.373C269.724 411.356 270.918 412.757 271.649 414.405C271.876 414.928 271.997 415.489 272.007 416.057Z" fill="#9747FF"/>
<path d="M262.137 420.121C262.026 420.336 261.897 420.54 261.75 420.733C258.938 424.578 252.829 424.951 248.084 421.478C247.523 421.064 246.992 420.611 246.495 420.121C243.219 416.838 242.214 412.22 244.189 408.873C244.301 408.659 244.43 408.454 244.576 408.262C247.388 404.388 253.469 404.044 258.214 407.488C258.786 407.916 259.324 408.386 259.824 408.894C263.072 412.163 264.084 416.754 262.137 420.121Z" fill="white"/>
<path d="M281.926 440.826C281.919 441.902 281.486 442.932 280.722 443.691C279.959 444.449 278.925 444.875 277.849 444.875H236.449C238.446 441.515 237.448 436.931 234.165 433.627H273.055C274.861 433.628 276.627 434.154 278.139 435.141C279.65 436.129 280.842 437.535 281.568 439.188C281.8 439.703 281.922 440.261 281.926 440.826Z" fill="#9747FF"/>
<path d="M236.449 444.873H216.969C215.166 444.875 213.401 444.352 211.889 443.368C210.378 442.385 209.185 440.983 208.456 439.334C208.226 438.818 208.104 438.261 208.097 437.696C208.097 437.164 208.201 436.637 208.404 436.145C208.607 435.653 208.905 435.207 209.281 434.83C209.657 434.454 210.104 434.156 210.596 433.953C211.088 433.75 211.615 433.646 212.147 433.646H234.165C237.448 436.929 238.467 441.513 236.449 444.873Z" fill="#D7E8F0"/>
<path d="M236.449 444.874C236.358 445.095 236.237 445.303 236.091 445.493C233.279 449.359 227.191 449.711 222.453 446.259C221.879 445.831 221.339 445.361 220.836 444.853C217.581 441.57 216.583 436.986 218.53 433.605C218.642 433.388 218.772 433.182 218.917 432.986C221.729 429.141 227.838 428.768 232.576 432.248C233.14 432.658 233.671 433.111 234.165 433.605C237.448 436.93 238.467 441.514 236.449 444.874Z" fill="white"/>
<path d="M250.242 469.459H225.454C223.652 469.457 221.889 468.933 220.378 467.95C218.867 466.966 217.673 465.567 216.941 463.92C216.662 463.302 216.543 462.625 216.595 461.95C216.648 461.274 216.869 460.623 217.24 460.056C217.611 459.489 218.119 459.025 218.716 458.706C219.314 458.387 219.982 458.225 220.66 458.232H247.936C245.982 461.6 246.987 466.176 250.242 469.459Z" fill="#9747FF"/>
<path d="M290.412 465.437C290.406 466.507 289.977 467.531 289.218 468.285C288.459 469.038 287.432 469.46 286.362 469.459H250.242C246.987 466.176 245.982 461.592 247.936 458.211H281.54C283.345 458.211 285.112 458.737 286.624 459.724C288.135 460.712 289.327 462.118 290.053 463.771C290.285 464.296 290.407 464.863 290.412 465.437Z" fill="#D7E8F0"/>
<path d="M265.884 469.459C265.772 469.675 265.642 469.882 265.497 470.078C262.685 473.944 256.604 474.296 251.859 470.844C251.289 470.415 250.751 469.945 250.249 469.438C246.994 466.155 245.989 461.572 247.943 458.19C248.051 457.973 248.178 457.766 248.323 457.572C251.135 453.726 257.244 453.396 261.989 456.833C262.553 457.243 263.085 457.697 263.578 458.19C266.854 461.515 267.852 466.127 265.884 469.459Z" fill="white"/>
<path d="M78.6118 245.336L79.2305 245.512L78.9985 246.411C78.8515 246.06 78.7222 245.701 78.6118 245.336Z" fill="#353642"/>
<path d="M188.629 301.579C197.883 298.862 202.745 287.669 199.489 276.579C196.234 265.489 186.093 258.7 176.839 261.416C167.585 264.133 162.723 275.326 165.979 286.416C169.234 297.507 179.375 304.295 188.629 301.579Z" fill="#D7E8F0"/>
</svg>
